{"title":"Mayweather vs Berto Official Weigh-Ins 720p WEB-DL x264 -={SPARR","uid":12402034,"size":829192830,"categoryP":"video","categoryS":"hd___tv_shows","magnet":"?xt=urn:btih:5f32ea392d0624fcafbeb586f9093764ef95d61a&amp;dn=Mayweather+vs+Berto+Official+Weigh-Ins+720p+WEB-DL+x264+-%3D%7BSPARR&amp;tr=udp%3A%2F%2Ftracker.openbittorrent.com%3A80&amp;tr=udp%3A%2F%2Fopen.demonii.com%3A1337&amp;tr=udp%3A%2F%2Ftracker.coppersurfer.tk%3A6969&amp;tr=udp%3A%2F%2Fexodus.desync.com%3A6969","seeders":1,"leechers":0,"uploader":"SS132203","files":2,"time":1442041572,"description":"Mayweather vs Berto Official Weigh-Ins 720p WEB-DL x264 -={SPARROW}=-\n &lt;a href=&quot;\nhttp://imgsparrow.co/image/8Zd&quot; rel=&quot;nofollow&quot; target=&quot;_NEW&quot;&gt;\nhttp://imgsparrow.co/image/8Zd&lt;/a&gt;\n\nInfo : - \n\nFormat                      : MPEG-4\nFormat profile              : Base Media / Version 2\nCodec ID                    : mp42\nFile size                   : 791 MiB\nDuration                    : 37mn 26s\nOverall bit rate mode       : Variable\nOverall bit rate            : 2 953 Kbps\n\nVideo\nID                          : 1\nFormat                      : AVC\nFormat/Info                 : Advanced Video Codec\nFormat profile              : &lt;a class=&quot;__cf_email__&quot; href=&quot;/cdn-cgi/l/email-protection&quot; data-cfemail=&quot;8fc7e6e8e7cfc3bca1be&quot;&gt;[email&amp;#160;protected]&lt;/a&gt;&lt;script data-cfhash='f9e31' type=&quot;text/javascript&quot;&gt;\n/* &lt;![CDATA[ */!function(){try{var t=&quot;currentScript&quot;in document?document.currentScript:function(){for(var t=document.getElementsByTagName(&quot;script&quot;),e=t.length;e--;)if(t[e].getAttribute(&quot;data-cfhash&quot;))return t[e]}();if(t&amp;&amp;t.previousSibling){var e,r,n,i,c=t.previousSibling,a=c.getAttribute(&quot;data-cfemail&quot;);if(a){for(e=&quot;&quot;,r=parseInt(a.substr(0,2),16),n=2;a.length-n;n+=2)i=parseInt(a.substr(n,2),16)^r,e+=String.fromCharCode(i);e=document.createTextNode(e),c.parentNode.replaceChild(e,c)}t.parentNode.removeChild(t);}}catch(u){}}()/* ]]&gt; */&lt;/script&gt;\nFormat settings, CABAC      : Yes\nFormat settings, ReFrames   : 1 frame\nFormat settings, GOP        : M=1, N=60\nCodec ID                    : avc1\nCodec ID/Info               : Advanced Video Coding\nDuration                    : 37mn 26s\nBit rate                    : 2 758 Kbps\nMaximum bit rate            : 5 985 Kbps\nWidth                       : 1 280 pixels\nHeight                      : 720 pixels\nDisplay aspect ratio        : 16:9\nFrame rate mode             : Constant\nFrame rate                  : 30.000 fps\nColor space                 : YUV\nChroma subsampling          : 4:2:0\nBit depth                   : 8 bits\nScan type                   : Progressive\nBits/(Pixel*Frame)          : 0.100\nStream size                 : 739 MiB (93%)\n\nAudio\nID                          : 2\nFormat                      : AAC\nFormat/Info                 : Advanced Audio Codec\nFormat profile              : LC\nCodec ID                    : 40\nDuration                    : 37mn 26s\nBit rate mode               : Variable\nBit rate                    : 192 Kbps\nMaximum bit rate            : 202 Kbps\nChannel(s)                  : 2 channels\nChannel positions           : Front: L R\nSampling rate               : 44.1 KHz\nCompression mode            : Lossy\nStream size                 : 51.4 MiB (7%)\n\nScreens : - \n &lt;a href=&quot;\nhttp://imgsparrow.co/image/8ad&quot; rel=&quot;nofollow&quot; target=&quot;_NEW&quot;&gt;\nhttp://imgsparrow.co/image/8ad&lt;/a&gt;\n &lt;a href=&quot;\nhttp://imgsparrow.co/image/8nG&quot; rel=&quot;nofollow&quot; target=&quot;_NEW&quot;&gt;\nhttp://imgsparrow.co/image/8nG&lt;/a&gt;","torrent":{"xt":"urn:btih:5f32ea392d0624fcafbeb586f9093764ef95d61a","amp;dn":"Mayweather+vs+Berto+Official+Weigh-Ins+720p+WEB-DL+x264+-%3D%7BSPARR","amp;tr":["udp%3A%2F%2Ftracker.openbittorrent.com%3A80","udp%3A%2F%2Fopen.demonii.com%3A1337","udp%3A%2F%2Ftracker.coppersurfer.tk%3A6969","udp%3A%2F%2Fexodus.desync.com%3A6969"],"infoHash":"5f32ea392d0624fcafbeb586f9093764ef95d61a","infoHashBuffer":{"type":"Buffer","data":[95,50,234,57,45,6,36,252,175,190,181,134,249,9,55,100,239,149,214,26]},"announce":[],"urlList":[]}}